<?xml version="1.0" encoding="utf-8"?>
<!-- Generator: Adobe Illustrator 19.0.1, SVG Export Plug-In . SVG Version: 6.00 Build 0)  -->
<svg version="1.1" id="Слой_1" xmlns="http://www.w3.org/2000/svg" xmlns:xlink="http://www.w3.org/1999/xlink" x="0px" y="0px"
	 viewBox="0 0 150 50.1" style="enable-background:new 0 0 150 50.1;" xml:space="preserve">
<style type="text/css">
	.st0{fill:#FFFFFF;}
</style>
<g>
	<g>
		<path class="st0" d="M147,23.3L121.4,0.5c-0.7-0.6-1.5-0.7-2.3-0.3c-0.8,0.3-1.3,1-1.3,1.9v14.6H7.9H4.6c-0.6,0-1.1,0.2-1.5,0.6
			c-0.4,0.4-0.6,0.9-0.6,1.5v12.5c0,0.6,0.2,1.1,0.6,1.5c0.4,0.4,0.9,0.6,1.5,0.6h3.6h109.5V48c0,0.9,0.4,1.5,1.3,1.9
			c0.8,0.3,1.6,0.2,2.3-0.4L147,26.4c0.4-0.4,0.7-1,0.7-1.6C147.6,24.3,147.4,23.8,147,23.3L147,23.3z M147,23.3"/>
	</g>
</g>
</svg>
