<?xml version="1.0" encoding="utf-8"?>
<!-- Generator: Adobe Illustrator 22.1.0, SVG Export Plug-In . SVG Version: 6.00 Build 0)  -->
<svg version="1.1" id="Layer_1" xmlns="http://www.w3.org/2000/svg" xmlns:xlink="http://www.w3.org/1999/xlink" x="0px" y="0px"
	 viewBox="29 141 358 512" style="enable-background:new 29 141 358 512;" xml:space="preserve">
<style type="text/css">
	.st0{fill:#ED1B24;}
</style>
<path class="st0" d="M312.8,318.6l66.8-89.6c2.7-3.6,3.1-8.4,1.1-12.4c-2-4-6.1-6.5-10.6-6.5H82.4V195c9.7-4.5,16.5-14.3,16.5-25.7
	c0-15.6-12.7-28.3-28.3-28.3s-28.3,12.7-28.3,28.3c0,11.4,6.8,21.2,16.5,25.7v434.3h-15c-6.5,0-11.8,5.3-11.8,11.8
	S37.3,653,43.8,653h53.5c6.5,0,11.8-5.3,11.8-11.8s-5.3-11.8-11.8-11.8h-15V426.6h287.4c4.5,0,8.5-2.5,10.5-6.5
	c2-4,1.6-8.8-1.1-12.3L312.8,318.6z M70.6,162.2c3.9,0,7.1,3.2,7.1,7.1c0,3.9-3.2,7.1-7.1,7.1c-3.9,0-7.1-3.2-7.1-7.1
	C63.5,165.4,66.7,162.2,70.6,162.2z"/>
</svg>
