<?xml version="1.0" encoding="utf-8"?>
<!-- Generator: Adobe Illustrator 22.1.0, SVG Export Plug-In . SVG Version: 6.00 Build 0)  -->
<svg version="1.1" id="Слой_1" xmlns="http://www.w3.org/2000/svg" xmlns:xlink="http://www.w3.org/1999/xlink" x="0px" y="0px"
	 viewBox="0 0 28.3 29.4" style="enable-background:new 0 0 28.3 29.4;" xml:space="preserve">
<style type="text/css">
	.st0{fill:#FFFFFF;}
	.st1{fill:#ED1B24;}
</style>
<polygon class="st0" points="24.7,21.8 24.7,25.5 3.7,25.5 3.7,23 2.4,13.2 8.5,8.6 19.7,8.7 26,13.2 "/>
<path class="st1" d="M26,13.2c-0.8,1.5-2.4,2.6-4.3,2.6H21v2.8c0,0.5-0.5,1-1,1c-0.5,0-1-0.4-1-1v-2.8H9.4v2.8c0,0.5-0.5,1-1,1
	c-0.5,0-1-0.4-1-1v-2.8H6.7c-1.9,0-3.5-1.1-4.3-2.6C1,13.8,0,15.2,0,16.9v4.7c0,2.2,1.7,3.9,3.7,3.9h0v-1.9h21v1.9h0
	c2,0,3.6-1.8,3.6-3.9v-4.7C28.3,15.2,27.4,13.8,26,13.2"/>
<path class="st1" d="M7.7,29.4h13.1c2.1,0,3.9-1.7,4-3.9h-21C3.8,27.7,5.5,29.4,7.7,29.4"/>
<path class="st1" d="M10.9,4.7H6.7c-1.7,0-3,1.4-3,3v3.1c0,1.7,1.4,3,3,3h0.6v-3.8c0-0.5,0.5-1,1-1s1,0.4,1,1v3.8H19v-3.8
	c0-0.5,0.5-1,1-1s1,0.4,1,1v3.8h0.7c1.7,0,3-1.4,3-3V7.7c0-1.7-1.3-3-3-3h-4.2c0-0.7-0.2-1.4-0.6-1.9c-0.6-0.8-1.6-1.3-2.6-1.3
	c-1.1,0-2,0.5-2.6,1.3C11.2,3.3,10.9,4,10.9,4.7 M15.5,4.7h-2.6c0-0.7,0.6-1.3,1.3-1.3C14.9,3.4,15.5,4,15.5,4.7"/>
</svg>
