<?xml version="1.0" encoding="utf-8"?>
<!-- Generator: Adobe Illustrator 22.1.0, SVG Export Plug-In . SVG Version: 6.00 Build 0)  -->
<svg version="1.1" id="Слой_1" xmlns="http://www.w3.org/2000/svg" xmlns:xlink="http://www.w3.org/1999/xlink" x="0px" y="0px"
	 viewBox="0 0 26.6 31" style="enable-background:new 0 0 26.6 31;" xml:space="preserve">
<style type="text/css">
	.st0{fill:#FFFFFF;}
	.st1{fill:#ED1B24;}
</style>
<path class="st0" d="M24.8,27.3l-6.5-2.7l6.5-2.7c1-0.4,1.5-1.5,1.1-2.5c-0.4-1-1.6-1.5-2.5-1.1l-10.1,4.2L3.2,18.3
	c-1-0.4-2.1,0.1-2.5,1.1c-0.4,1,0.1,2.1,1.1,2.5l6.5,2.7l-6.5,2.7c-1,0.4-1.5,1.5-1.1,2.5c0.3,0.8,1,1.2,1.8,1.2
	c0.2,0,0.5,0,0.7-0.1l10.1-4.2l10,4.2C23.5,31,23.8,31,24,31c0.8,0,1.5-0.5,1.8-1.2C26.3,28.8,25.8,27.7,24.8,27.3"/>
<path class="st1" d="M13.2,20c4.6,0,8.2-3.7,8.2-8.2c0-1.1-0.5-2.7-1.3-4.3c-0.1-0.2-0.3-0.3-0.6-0.3c-0.2,0-0.4,0.3-0.4,0.5
	c0,1.7-0.5,2.9-1.1,3.7c-0.1,0.1-0.2,0.1-0.3,0.1c-0.1-0.1-0.1-0.2-0.1-0.3c0.4-1.1,0.2-2.6-1.8-4.8c-1.9-2.1-2.4-3.7-2.3-4.9
	c0-0.2-0.1-0.5-0.3-0.6c-0.2-0.1-0.5,0-0.6,0.1C10.7,3,8.3,6.4,9,9.7c0,0.1,0,0.3-0.2,0.3c-0.1,0.1-0.3,0-0.4-0.1
	C8,9.1,7.5,7.9,7.7,6.4c0-0.3-0.1-0.5-0.4-0.6C7.1,5.7,6.8,5.8,6.7,6C5.8,7.6,5,9.7,5,11.7C5,16.3,8.7,20,13.2,20"/>
</svg>
