<?xml version="1.0" encoding="utf-8"?>
<!-- Generator: Adobe Illustrator 22.1.0, SVG Export Plug-In . SVG Version: 6.00 Build 0)  -->
<svg version="1.1" id="Слой_1" xmlns="http://www.w3.org/2000/svg" xmlns:xlink="http://www.w3.org/1999/xlink" x="0px" y="0px"
	 viewBox="0 0 25.3 28.9" style="enable-background:new 0 0 25.3 28.9;" xml:space="preserve">
<style type="text/css">
	.st0{fill:#FFFFFF;}
	.st1{fill:#ED1B24;}
</style>
<path class="st0" d="M9.2,14.6c-0.5-0.1-1,0.2-1.1,0.8c-0.1,0.5,0.2,1,0.8,1.1c0.1,0,0.1,0,0.2,0c0.5,0,0.9-0.3,1-0.8l0,0
	C10,15.2,9.7,14.7,9.2,14.6z M8.6,18.4c-0.5-0.1-1,0.2-1.1,0.8c-0.1,0.5,0.2,1,0.8,1.1c0.1,0,0.1,0,0.2,0c0.5,0,0.9-0.3,0.9-0.8v0
	C9.4,19,9.1,18.5,8.6,18.4z M7.9,22.2c-0.5-0.1-1,0.4-1.1,0.9c-0.1,0.5,0.3,1,0.9,1.1h0.1c0.5,0,0.9-0.4,1-0.9v0
	C8.8,22.7,8.4,22.3,7.9,22.2z M7.4,26.1c-0.5-0.1-1,0.3-1.1,0.8c-0.1,0.5,0.2,1,0.8,1.1c0.1,0,0.1,0,0.2,0c0.4,0,0.8-0.3,0.9-0.8v0
	C8.2,26.7,7.9,26.2,7.4,26.1z M6,14.6c-0.5-0.2-1.1,0-1.3,0.5c-0.2,0.5,0,1.1,0.5,1.2c0.1,0.1,0.2,0.1,0.4,0.1
	c0.4,0,0.7-0.2,0.9-0.6l0,0C6.8,15.4,6.5,14.8,6,14.6z M4.6,18.2c-0.5-0.2-1,0.1-1.2,0.7c-0.2,0.5,0.1,1,0.7,1.2c0.1,0,0.2,0,0.3,0
	c0.4,0,0.8-0.3,0.9-0.7v0C5.4,18.9,5.1,18.4,4.6,18.2z M3.4,21.9c-0.5-0.2-1.1,0.1-1.3,0.6c-0.2,0.5,0,1.1,0.5,1.3
	c0.1,0,0.2,0.1,0.4,0.1c0.4,0,0.8-0.2,0.9-0.6l0,0C4.1,22.7,3.9,22.1,3.4,21.9z M2,25.6c-0.5-0.2-1.1,0-1.3,0.5
	c-0.2,0.5,0,1,0.5,1.3c0.1,0,0.2,0.1,0.4,0.1c0.4,0,0.8-0.2,0.9-0.6l0,0C2.8,26.3,2.5,25.8,2,25.6z M17.3,15.3L17.3,15.3
	c-0.1-0.5-0.6-0.9-1.1-0.8c-0.5,0.1-0.9,0.6-0.8,1.1c0.1,0.5,0.5,0.8,0.9,0.8c0.1,0,0.1,0,0.2,0C17,16.4,17.4,15.8,17.3,15.3z
	 M17.9,19.2L17.9,19.2c-0.1-0.5-0.6-0.9-1.1-0.8c-0.5,0.1-0.9,0.6-0.7,1.1c0.1,0.5,0.5,0.8,0.9,0.8c0.1,0,0.1,0,0.2,0
	C17.6,20.2,18,19.7,17.9,19.2z M17.4,22.2c-0.5,0.1-0.9,0.5-0.9,1.1c0,0.5,0.5,0.9,1,0.9h0.1c0.5-0.1,0.9-0.5,0.9-1.1v0
	C18.4,22.5,18,22.2,17.4,22.2z M19.1,26.8c-0.1-0.5-0.6-0.9-1.1-0.8c-0.5,0.1-0.9,0.6-0.8,1.1c0.1,0.5,0.5,0.8,1,0.8
	c0.1,0,0.1,0,0.2,0C18.8,27.9,19.2,27.4,19.1,26.8L19.1,26.8z M20.5,15.2L20.5,15.2c-0.2-0.5-0.8-0.8-1.3-0.5
	c-0.5,0.2-0.7,0.8-0.5,1.3c0.1,0.4,0.5,0.6,0.9,0.6c0.1,0,0.2,0,0.4-0.1C20.5,16.2,20.7,15.6,20.5,15.2z M21.9,18.9L21.9,18.9
	c-0.2-0.5-0.7-0.8-1.2-0.7c-0.5,0.2-0.8,0.7-0.6,1.2c0.1,0.4,0.5,0.7,0.9,0.7c0.1,0,0.2,0,0.3,0C21.8,19.9,22.1,19.4,21.9,18.9z
	 M23.2,22.5L23.2,22.5c-0.2-0.5-0.8-0.8-1.3-0.6c-0.5,0.2-0.7,0.8-0.5,1.3c0.1,0.4,0.5,0.6,0.9,0.6c0.1,0,0.2,0,0.4-0.1
	C23.2,23.5,23.4,22.9,23.2,22.5z M24.5,26.1L24.5,26.1c-0.2-0.5-0.8-0.8-1.3-0.5c-0.5,0.2-0.7,0.8-0.5,1.3c0.1,0.4,0.5,0.6,0.9,0.6
	c0.1,0,0.2,0,0.4-0.1C24.5,27.2,24.7,26.6,24.5,26.1z M12.7,26.6c-0.5,0-1,0.4-1,1c0,0.5,0.4,1,1,1c0.5,0,1-0.4,1-1v0
	C13.6,27,13.2,26.6,12.7,26.6z M12.7,18.5c-0.5,0-1,0.4-1,1c0,0.5,0.4,1,1,1c0.5,0,1-0.4,1-1v0C13.6,19,13.2,18.5,12.7,18.5z
	 M12.7,22.6c-0.5,0-1,0.5-1,1c0,0.5,0.4,1,1,1c0.5,0,1-0.4,1-1v0C13.6,23,13.2,22.6,12.7,22.6z M12.7,14.5c-0.5,0-1,0.4-1,1
	c0,0.5,0.4,1,1,1c0.5,0,1-0.4,1-1v0C13.6,15,13.2,14.5,12.7,14.5z"/>
<path class="st1" d="M22.1,13.2H3.2C3.2,10,5.8,7.4,9,7.4h1.6V0.2h4.1v7.2h1.6C19.5,7.4,22.1,10,22.1,13.2z"/>
</svg>
