<?xml version="1.0" encoding="utf-8"?>
<!-- Generator: Adobe Illustrator 22.1.0, SVG Export Plug-In . SVG Version: 6.00 Build 0)  -->
<svg version="1.1" xmlns="http://www.w3.org/2000/svg" xmlns:xlink="http://www.w3.org/1999/xlink" x="0px" y="0px"
	 viewBox="0 0 24.5 28.5" style="enable-background:new 0 0 24.5 28.5;" xml:space="preserve">
<style type="text/css">
	.st0{fill:#FFFFFF;}
	.st1{fill:#ED1B24;}
</style>
<g id="Слой_1">
	<g>
		<path class="st0" d="M5.3,3.7C4.2,4.4,3.1,5.2,2.2,6.1c0-0.1,0-0.1,0-0.2c0-1.3,1.1-2.4,2.3-2.4C4.8,3.6,5.1,3.6,5.3,3.7z"/>
	</g>
	<g>
		<path class="st0" d="M14.3,4.1l-0.4-0.1V0.8h1.6c0,0,0.2-0.1,0.2-0.4S15.5,0,15.5,0H9c0,0-0.2,0.1-0.2,0.4c0,0.2,0.1,0.4,0.2,0.4
			h1.6v3.3l-0.4,0.1c-1,0.2-2,0.5-2.9,0.9C5.6,5.8,4.1,6.9,2.9,8.3C1,10.5,0,13.3,0,16.2C0,23,5.5,28.5,12.3,28.5
			c6.8,0,12.3-5.5,12.3-12.3C24.5,10.2,20.2,5.1,14.3,4.1z M12.3,27.3c-6.1,0-11.1-5-11.1-11.1c0-2.9,1.1-5.7,3.2-7.8
			C5.1,7.6,6,7,6.9,6.5c1.6-0.9,3.5-1.4,5.3-1.4c6.1,0,11.1,5,11.1,11.1C23.3,22.3,18.4,27.3,12.3,27.3z"/>
	</g>
	<g>
		<path class="st1" d="M18.3,10.2c-0.4-0.4-0.8-0.7-1.3-1c-0.2-0.2-0.5-0.3-0.7-0.4c-0.3-0.2-0.6-0.3-0.9-0.4
			c-0.8-0.3-1.7-0.5-2.6-0.6c-0.2,0-0.4,0-0.6,0c-1.4,0-2.8,0.4-4.1,1C7.9,8.8,7.7,9,7.5,9.1c-0.5,0.3-0.9,0.6-1.3,1
			c-1.6,1.6-2.5,3.8-2.5,6c0,2.3,0.9,4.4,2.5,6.1c0.4,0.4,0.8,0.7,1.3,1c0.2,0.1,0.5,0.3,0.7,0.4c1.4,0.8,3,1.1,4.6,1
			c0.9,0,1.8-0.3,2.6-0.6c0.3-0.1,0.6-0.3,1-0.4c0.2-0.1,0.5-0.3,0.7-0.4c0.5-0.3,0.9-0.7,1.3-1c1.6-1.6,2.5-3.8,2.5-6.1
			C20.8,13.9,19.9,11.8,18.3,10.2z M12.8,16.1l-7.7,3l-0.1-0.5c-0.6-2.5-0.1-5.1,1.4-7.1c1.4-1.8,3.6-2.9,5.9-2.9h0.5V16.1z"/>
	</g>
</g>
<g id="Слой_2">
</g>
</svg>
