<?xml version="1.0" encoding="utf-8"?>
<!-- Generator: Adobe Illustrator 22.1.0, SVG Export Plug-In . SVG Version: 6.00 Build 0)  -->
<svg version="1.1" id="Слой_1" xmlns="http://www.w3.org/2000/svg" xmlns:xlink="http://www.w3.org/1999/xlink" x="0px" y="0px"
	 viewBox="0 0 29.1 25.1" style="enable-background:new 0 0 29.1 25.1;" xml:space="preserve">
<style type="text/css">
	.st0{fill:#FFFFFF;}
	.st1{fill:#ED1B24;}
</style>
<rect x="4.4" y="4.4" class="st0" width="20.2" height="20.3"/>
<path class="st1" d="M1.4,5.5C0.7,6.2,0.4,7,0.4,8v13.2c0,1,0.3,1.8,1,2.5c0.7,0.7,1.5,1,2.5,1h0.5V4.4H3.9C3,4.4,2.1,4.8,1.4,5.5"
	/>
<path class="st1" d="M20.6,1.9c0-0.4-0.1-0.8-0.4-1.1c-0.3-0.3-0.7-0.4-1.1-0.4H10c-0.4,0-0.8,0.1-1.1,0.4C8.6,1.1,8.5,1.5,8.5,1.9
	v2.5H6v20.2h17.2V4.4h-2.5V1.9z M10.5,2.4h8.1v2h-8.1V2.4z M20.6,16.1c0,0.1,0,0.3-0.1,0.4c-0.1,0.1-0.2,0.1-0.4,0.1h-3.5v3.5
	c0,0.1,0,0.3-0.1,0.4c-0.1,0.1-0.2,0.1-0.4,0.1h-3c-0.1,0-0.3,0-0.4-0.1c-0.1-0.1-0.1-0.2-0.1-0.4v-3.5H9c-0.1,0-0.3,0-0.4-0.1
	c-0.1-0.1-0.1-0.2-0.1-0.4v-3c0-0.1,0-0.3,0.1-0.4c0.1-0.1,0.2-0.1,0.4-0.1h3.5V9c0-0.1,0-0.3,0.1-0.4c0.1-0.1,0.2-0.1,0.4-0.1h3
	c0.1,0,0.3,0,0.4,0.1c0.1,0.1,0.1,0.2,0.1,0.4v3.5h3.5c0.1,0,0.3,0,0.4,0.1c0.1,0.1,0.1,0.2,0.1,0.4V16.1L20.6,16.1z"/>
<path class="st1" d="M27.7,5.5c-0.7-0.7-1.5-1-2.5-1h-0.5v20.2h0.5c1,0,1.8-0.3,2.5-1c0.7-0.7,1-1.5,1-2.5V8
	C28.7,7,28.4,6.2,27.7,5.5"/>
</svg>
