<?xml version="1.0" encoding="utf-8"?>
<!-- Generator: Adobe Illustrator 22.1.0, SVG Export Plug-In . SVG Version: 6.00 Build 0)  -->
<svg version="1.1" id="Слой_1" xmlns="http://www.w3.org/2000/svg" xmlns:xlink="http://www.w3.org/1999/xlink" x="0px" y="0px"
	 viewBox="0 0 29.4 24.8" style="enable-background:new 0 0 29.4 24.8;" xml:space="preserve">
<style type="text/css">
	.st0{fill:#ED1B24;}
	.st1{fill:#FFFFFF;}
</style>
<path class="st0" d="M23.2,2.4c0-0.9,0-1.4,0-1.4l-8.5,0h-0.1L6.1,1c0,0,0,0.5,0,1.4H0.4v0.9c0,0.2,0,5.2,3.1,7.9
	C4.8,12.4,6.4,13,8.3,13c0.3,0,0.6,0,0.9,0c1.1,1.5,2.3,2.5,3.7,3v4.1H8.8v2.6H7.5V24h14.3v-1.4h-1.4v-2.6h-4.1V16
	c1.4-0.5,2.6-1.5,3.7-3c0.3,0,0.6,0,0.9,0c1.9,0,3.5-0.6,4.8-1.7c3.1-2.7,3.1-7.7,3.1-7.9V2.4H23.2z M4.8,9.9C3,8.4,2.5,5.7,2.4,4.3
	h3.8C6.3,6,6.7,8.2,7.6,10.1c0.2,0.4,0.3,0.7,0.5,1C6.8,11.1,5.7,10.7,4.8,9.9 M24.4,9.9c-0.9,0.8-2,1.2-3.3,1.2
	c0.2-0.3,0.3-0.7,0.5-1c0.9-1.9,1.3-4.1,1.4-5.9h3.8C26.7,5.7,26.2,8.4,24.4,9.9"/>
<rect x="8.8" y="20.1" class="st1" width="11.6" height="2.6"/>
<rect x="7.5" y="22.6" class="st1" width="14.3" height="1.4"/>
</svg>
