<?xml version="1.0" encoding="utf-8"?>
<!-- Generator: Adobe Illustrator 19.0.1, SVG Export Plug-In . SVG Version: 6.00 Build 0)  -->
<svg version="1.1" id="Capa_1" xmlns="http://www.w3.org/2000/svg" xmlns:xlink="http://www.w3.org/1999/xlink" x="0px" y="0px"
	 viewBox="55 101.2 394.1 394.1" style="enable-background:new 55 101.2 394.1 394.1;" xml:space="preserve">
<style type="text/css">
	.st0{fill:#FFFFFF;}
	.st1{fill:#F42003;}
</style>
<g>
	<g>
		<path class="st0" d="M350.6,366c-9.5-34.8-36.8-62.1-71.6-71.6v-23.1l54.9-21c3.1-1.2,5.1-4.1,5.1-7.4V109.2c0-4.4-3.6-8-8-8H173
			c-4.4,0-8,3.6-8,8v133.1c0,3.3,2,6.3,5.1,7.4L225,271v23.4c-54.5,14.9-86.5,71.1-71.6,125.6s71.1,86.5,125.6,71.6
			S365.6,420.5,350.6,366z M295,117.2h28.3v120l-28.3,11V117.2z M209.4,248.1l-28.3-11v-120h28.3V248.1z M225.4,117.2h53.4v137
			L252,264.6l-26.6-10.3V117.2z M263,277.2v14c-7.3-0.8-14.7-0.8-22,0v-13.7l8,3.1c1.9,0.7,3.9,0.7,5.8,0L263,277.2z M338.2,393.2
			c0,47.6-38.6,86.2-86.2,86.2c-47.6,0-86.2-38.6-86.2-86.2S204.4,307,252,307S338.2,345.6,338.2,393.2L338.2,393.2z"/>
	</g>
</g>
<g>
	<g>
		<path class="st1" d="M315.4,368.6c-1.2-1.3-2.9-2.1-4.6-2.4l-35.8-5.1l-16-32c-2-4-6.8-5.6-10.7-3.6c-1.6,0.8-2.8,2-3.6,3.6
			l-16,32l-35.4,5.1c-4.4,0.6-7.4,4.7-6.8,9.1c0.3,1.8,1.1,3.4,2.4,4.6l25.7,25l-6.1,35.4c-0.7,4.4,2.3,8.5,6.6,9.2
			c1.7,0.3,3.4,0,4.9-0.8l32-16.7l32,16.7c3.9,2,8.7,0.5,10.8-3.4c0.8-1.5,1.1-3.3,0.8-5l-6.1-35.4l25.7-25
			C318.4,376.9,318.5,371.8,315.4,368.6z M275,396.4c-1.9,1.8-2.7,4.5-2.3,7l4,23.5l-21-11c-2.3-1.2-5.1-1.2-7.4,0L227.2,427l4-23.5
			c0.4-2.6-0.4-5.2-2.3-7L212,379.8l23.6-3.4c2.6-0.4,4.8-2,6-4.4l10.4-21.4l10.6,21.4c1.2,2.4,3.4,4,6,4.4l23.6,3.4L275,396.4z"/>
	</g>
</g>
</svg>
