<?xml version="1.0" encoding="utf-8"?>
<!-- Generator: Adobe Illustrator 19.0.1, SVG Export Plug-In . SVG Version: 6.00 Build 0)  -->
<svg version="1.1" id="Capa_1" xmlns="http://www.w3.org/2000/svg" xmlns:xlink="http://www.w3.org/1999/xlink" x="0px" y="0px"
	 viewBox="62 94.3 408 408" style="enable-background:new 62 94.3 408 408;" xml:space="preserve">
<style type="text/css">
	.st0{fill:#FFFFFF;}
	.st1{fill:#E91E00;}
	.st2{fill:#E60A00;}
	.st3{fill:#E90500;}
	.st4{fill:#F00A00;}
	.st5{fill:none;}
</style>
<g>
	<g>
		<path class="st0" d="M413.4,95.6h-56c-4.4,0-8,3.5-8,8c0,0.3,0,0.6,0,0.9c0.4,3.2,0.6,6.5,0.6,9.8c0,46.4-37.6,84-84,84
			s-84-37.6-84-84c0-3.3,0.3-6.5,0.6-9.8c0.5-4.4-2.7-8.4-7.1-8.8c-0.3,0-0.6,0-0.9,0h-56c-8.8,0-16,7.2-16,16v134.6h16V111.6H166
			v2.6c0,55.2,44.8,100,100,100s100-44.8,100-100v-2.6h47.4v134.6h16V111.6C429.4,102.8,422.2,95.6,413.4,95.6z M413.3,445l0.1,40
			H118.6v-40h-16v40c0,8.8,7.2,16,16,16h294.7c8.8,0,16-7.2,16-16v-40H413.3z M102.6,323.6v44h16v-44H102.6z"/>
		<path class="st0" d="M413.3,323.6v44h16.1v-44H413.3z"/>
		<path class="st1" d="M462,367.6h-81.4c-4.4,0-8,3.6-8,8V437c0,4.4,3.6,8,8,8H462c4.4,0,8-3.6,8-8v-61.4
			C470,371.2,466.4,367.6,462,367.6z M454,429h-65.4v-45.4H454V429z"/>
		<path class="st2" d="M151.3,367.6H70c-4.4,0-8,3.6-8,8V437c0,4.4,3.6,8,8,8h81.3c4.4,0,8-3.6,8-8v-61.4
			C159.3,371.2,155.7,367.6,151.3,367.6z M143.4,429H78v-45.4h65.4V429z"/>
		<path class="st3" d="M462,246.2h-81.4c-4.4,0-8,3.6-8,8v61.4c0,4.4,3.6,8,8,8H462c4.4,0,8-3.6,8-8v-61.4
			C470,249.8,466.4,246.2,462,246.2z M454,307.6h-65.4v-45.4H454V307.6z"/>
		<path class="st4" d="M151.3,246.2H70c-4.4,0-8,3.6-8,8v61.4c0,4.4,3.6,8,8,8h81.3c4.4,0,8-3.6,8-8v-61.4
			C159.3,249.8,155.7,246.2,151.3,246.2z M143.4,307.6H78v-45.4h65.4V307.6z"/>
	</g>
</g>
<g>
	<g>
		<path class="st0" d="M331,246.2H197c-8.8,0-16,7.2-16,16v166.6c0,8.8,7.2,16,16,16h134c8.8,0,16-7.2,16-16V262.2
			C347,253.4,339.9,246.2,331,246.2z M331,428.9H197V262.2h134V428.9z"/>
	</g>
</g>
<polyline class="st5" points="151.3,246.2 197,246.2 331,246.2 380.6,246.2 "/>
<line class="st5" x1="380.6" y1="445" x2="151.3" y2="445"/>
<path d="M431,372.2L431,372.2z"/>
</svg>
