<?xml version="1.0" encoding="utf-8"?>
<!-- Generator: Adobe Illustrator 19.0.1, SVG Export Plug-In . SVG Version: 6.00 Build 0)  -->
<svg version="1.1" id="Capa_1" xmlns="http://www.w3.org/2000/svg" xmlns:xlink="http://www.w3.org/1999/xlink" x="0px" y="0px"
	 viewBox="56 99.8 395.4 395.4" style="enable-background:new 56 99.8 395.4 395.4;" xml:space="preserve">
<style type="text/css">
	.st0{fill:#FFFFFF;}
	.st1{fill:#D41200;}
	.st2{fill:#FFFFFF;stroke:#000000;stroke-miterlimit:10;}
</style>
<g>
	<g>
		<path class="st0" d="M399,349.7c0,80.3-65.1,145.5-145.5,145.5S108,430.1,108,349.7c0-4.2,0.6-8.6,0.6-12.8l16.6-1.8
			c-0.1,0.6-0.1,1.2-0.2,1.8c-0.4,4.2-0.6,8.5-0.7,12.7c0.1,71.5,58,129.3,129.4,129.4c5.4,0,10.7-0.3,16-0.9
			c69.9-8.3,120.1-71.2,112.8-141c-0.1-0.7-0.1-1.3-0.2-2l16.1,2C399,341.7,399,345.6,399,349.7z"/>
		<path class="st1" d="M427,258.7C422.6,99.9,321.5,99.9,277.7,99.9h-48c-43.5,0-144.6,0-149,158.8c-11.1,1.7-24,7.3-24.7,20.8v76.7
			c0,1.2,0.3,2.4,0.8,3.4c0,0.7,9,18.5,37.3,20.2h0.6c4.4-0.4,7.7-4.2,7.3-8.6c-0.1-0.6-0.2-1.2-0.4-1.8c-1-9.3,0-24.8,5.4-31.2
			c0.5-0.5,1-1,1.5-1.4l16.6-1.8l128.6-0.7l128.6,0.7l16.1,2c0.5,0.3,1,0.6,1.4,1c5.9,6.7,6.3,24,5.1,32.6c-0.3,2.4,0.5,4.7,2.1,6.5
			c1.6,1.7,4,2.6,6.3,2.5c28.2-1.8,37-19.4,37.3-20.2c0.5-1.1,0.8-2.3,0.8-3.4V279C451,265.5,437.7,260.4,427,258.7z M421.7,362.5
			c0.9-12.4-2.6-24.7-9.7-34.8c-5-5.7-12.2-8.8-19.8-8.5l-138.6-0.7l-138.3,0.7h-0.9c-7.3-0.2-14.4,2.9-19.2,8.5
			c-7.1,10.2-10.5,22.4-9.6,34.8c-5.4-1.2-10.3-4.2-13.9-8.5v-74.1c0-3.5,10-5.8,16.6-5.8c4.4,0,8-3.6,8-8
			c1-131.9,64.5-150.2,133.3-150.2h48c68.4,0,131.9,18.2,133,150.2c0,4.4,3.6,8,8,8c6.5,0,16.4,2.3,16.6,5.4l0.4,74.3
			C432.1,358.2,427.2,361.2,421.7,362.5z"/>
	</g>
</g>
<g>
	<g>
		<path class="st0" d="M279.8,414.5h-52.2c-4.4,0-8,3.6-8,8s3.6,8,8,8h52.2c4.4,0,8-3.6,8-8S284.2,414.5,279.8,414.5z"/>
	</g>
</g>
<g>
	<g>
		<path class="st0" d="M206.6,156.9c-2.4-3.7-7.3-4.8-11-2.5l-0.1,0.1c-4.4,2.8-28.6,24-36,30c-3.2,3-3.4,8.1-0.5,11.3
			c2.9,3.1,7.7,3.4,10.9,0.8c14.8-12.8,31.6-27,34.2-28.6C207.8,165.6,208.9,160.7,206.6,156.9z"/>
	</g>
</g>
<g>
	<g>
		<path class="st0" d="M255.7,287.7C255.7,287.7,255.7,287.7,255.7,287.7c-2-5-16.2-33.6-20.7-42.2c-1.9-4-6.7-5.7-10.7-3.8
			s-5.7,6.7-3.8,10.7c0.1,0.1,0.1,0.3,0.2,0.4c8.9,17.4,18.7,37.1,19.7,40c1.1,3.3,4.2,5.4,7.6,5.4c0.9,0,1.7-0.1,2.6-0.4
			C254.8,296.4,257.1,291.9,255.7,287.7z"/>
	</g>
</g>
<g>
	<g>
		<path class="st0" d="M314.4,203.7c-5.2-0.4-37.2,1.6-46.8,2.2c-4.4,0.1-7.9,3.8-7.8,8.2s3.8,7.9,8.2,7.8h0.6
			c19.5-1.3,41.4-2.5,44.5-2.2c4.4,0.4,8.3-2.9,8.6-7.4S318.8,204,314.4,203.7z"/>
	</g>
</g>
<g>
	<g>
		<path class="st0" d="M177.4,242.4c-3.8-2.2-8.7-0.8-10.9,3c-3.4,6-13.2,9.8-23.5,13.7c-14.7,5.7-31.4,12.1-36.9,28.4
			c-1.4,4.2,0.9,8.7,5,10.1c0.8,0.3,1.7,0.4,2.6,0.4c3.4,0,6.5-2.2,7.6-5.4c3.1-9.2,15-13.8,27.4-18.6c12.5-4.8,25.4-9.8,32-20.7
			C182.8,249.3,181.3,244.4,177.4,242.4z"/>
	</g>
</g>
<g>
	<g>
		<path class="st0" d="M349.3,167.9c-6.9,0-14.6-7.3-22.9-14.7c-11.7-10.5-25-22.5-42.1-19.9c-4.4,0.6-7.5,4.7-6.8,9.2
			c0.6,4.4,4.7,7.5,9.2,6.8l0.8-0.2c9.7-1.4,19,7,29,16c10,9,20.2,18.2,32.8,18.8c4.4,0,8-3.6,8-8S353.7,167.9,349.3,167.9z"/>
	</g>
</g>
<g>
	<g>
		<path class="st0" d="M407.7,298.9c-1.1-4.3-5.5-6.9-9.8-5.8l-0.2,0.1c-6.6,1.8-16-2.6-26.2-7.3c-13.8-6.6-30.2-14-45.8-6.6
			c-4.1,1.6-6.1,6.3-4.5,10.4c1.6,4.1,6.3,6.1,10.4,4.5c0.4-0.1,0.7-0.3,1-0.5c8.8-4.2,20.3,1.1,32.5,6.6c9.1,5.1,19.3,8.2,29.7,9.1
			c2.4,0,4.8-0.3,7.2-0.9C406.2,307.5,408.8,303.1,407.7,298.9z"/>
	</g>
</g>
<polygon class="st2" points="398.4,337.2 382.5,337.2 124.9,336.9 108.6,336.9 125.1,335.2 382.3,335.2 "/>
</svg>
